#tb 0: 1/25
#media_type 0: video
#codec_id 0: rawvideo
#dimensions 0: 1280x720
#sar 0: 0/1
0,          0,          0,        1,  2764800, 0xde442361
0,          1,          1,        1,  2764800, 0x8d482fdf
0,          2,          2,        1,  2764800, 0x9b431e37
0,          3,          3,        1,  2764800, 0x8b7d893d
0,          4,          4,        1,  2764800, 0xa471ac17
0,          5,          5,        1,  2764800, 0xe990790f
0,          6,          6,        1,  2764800, 0x8f3f8285
0,          7,          7,        1,  2764800, 0xeaf9f242
0,          8,          8,        1,  2764800, 0xfd37f69d
0,          9,          9,        1,  2764800, 0x31d29f19
0,         10,         10,        1,  2764800, 0x92f56414
0,         11,         11,        1,  2764800, 0xb909e334
0,         12,         12,        1,  2764800, 0x9f2fad13
0,         13,         13,        1,  2764800, 0xbf9090b2
0,         14,         14,        1,  2764800, 0xa39c7b78
0,         15,         15,        1,  2764800, 0x83e77296
0,         16,         16,        1,  2764800, 0x737a5a9d
0,         17,         17,        1,  2764800, 0x356c51d6
0,         18,         18,        1,  2764800, 0xd498468c
0,         19,         19,        1,  2764800, 0xd25a396d
